<?xml version="1.0" standalone="no"?>
<!DOCTYPE svg PUBLIC "-//W3C//DTD SVG 1.1//EN" "http://www.w3.org/Graphics/SVG/1.1/DTD/svg11.dtd">
<svg version="1.1" xmlns="http://www.w3.org/2000/svg" viewBox="0 0 511.83328465123986 511.83328465123986" width="511.83328465123986" height="511.83328465123986"><!-- svg-source:excalidraw --><metadata></metadata><defs><style class="style-fonts">
      </style></defs><rect x="0" y="0" width="511.83328465123986" height="511.83328465123986" fill="#ffffff"></rect><g transform="translate(35.381687142417604 346.6127076144485) rotate(0 219.7297188465442 -91.64691419507653)" stroke="none"><path fill="#1e1e1e" d="M -4.24,60.54 Q -4.24,60.54 -0.63,57.14 2.97,53.73 6.95,49.45 10.93,45.17 16.92,38.93 22.90,32.69 28.24,26.84 33.59,20.99 41.20,12.66 48.82,4.33 60.90,-9.42 72.97,-23.18 82.55,-34.87 92.12,-46.56 99.44,-55.80 106.76,-65.05 114.31,-75.23 121.86,-85.40 129.13,-96.35 136.40,-107.30 141.57,-116.44 146.73,-125.58 151.45,-135.60 156.18,-145.62 159.54,-153.58 162.91,-161.54 165.20,-168.95 167.50,-176.35 168.88,-182.82 170.25,-189.28 171.74,-199.56 173.23,-209.83 173.55,-216.36 173.87,-222.89 172.53,-230.06 171.19,-237.23 169.67,-241.34 168.14,-245.45 162.86,-245.45 157.57,-245.44 150.14,-244.10 142.71,-242.75 136.62,-240.99 130.53,-239.23 123.89,-236.46 117.25,-233.70 110.04,-230.29 102.83,-226.88 94.50,-221.09 86.17,-215.31 78.80,-208.21 71.44,-201.11 67.27,-195.41 63.10,-189.72 61.40,-182.83 59.70,-175.95 60.16,-170.90 60.62,-165.85 63.87,-159.92 67.11,-153.99 70.37,-151.22 73.63,-148.45 82.95,-144.53 92.26,-140.61 98.67,-138.55 105.08,-136.49 122.48,-134.66 139.88,-132.83 158.36,-132.29 176.83,-131.75 190.81,-132.17 204.78,-132.58 216.80,-133.78 228.82,-134.98 239.18,-136.86 249.53,-138.73 260.16,-140.96 270.79,-143.19 277.76,-145.00 284.72,-146.82 290.28,-148.23 295.84,-149.63 299.95,-150.73 304.06,-151.84 306.64,-152.71 309.22,-153.58 310.23,-153.65 311.25,-153.72 312.26,-153.54 313.26,-153.36 314.19,-152.95 315.12,-152.53 315.93,-151.91 316.73,-151.28 317.37,-150.48 318.00,-149.69 318.42,-148.76 318.84,-147.83 319.03,-146.83 319.22,-145.83 319.17,-144.81 319.11,-143.79 318.81,-142.82 318.51,-141.84 317.99,-140.97 317.47,-140.09 316.75,-139.37 316.04,-138.65 315.17,-138.11 314.30,-137.58 313.33,-137.27 312.35,-136.97 308.51,-134.98 304.67,-132.99 296.18,-129.29 287.68,-125.60 278.26,-119.87 268.85,-114.14 262.12,-109.48 255.40,-104.81 249.96,-100.60 244.51,-96.38 236.25,-89.41 227.99,-82.44 219.26,-74.02 210.53,-65.60 202.47,-55.92 194.41,-46.24 188.93,-38.45 183.45,-30.66 177.33,-18.02 171.21,-5.39 167.93,3.22 164.65,11.84 162.96,19.74 161.27,27.64 161.87,33.84 162.48,40.05 164.76,45.03 167.05,50.02 171.60,53.43 176.16,56.85 181.18,58.73 186.20,60.61 201.64,62.21 217.08,63.81 232.96,64.38 248.84,64.94 261.70,64.57 274.55,64.20 289.86,62.21 305.18,60.23 318.31,57.98 331.44,55.73 346.40,52.19 361.35,48.64 372.62,45.41 383.90,42.18 395.19,37.93 406.48,33.67 413.75,30.53 421.01,27.38 425.27,24.66 429.53,21.94 432.53,19.48 435.54,17.03 436.72,16.58 437.90,16.13 439.16,16.08 440.42,16.03 441.63,16.39 442.84,16.74 443.87,17.47 444.91,18.19 445.66,19.21 446.41,20.23 446.79,21.43 447.17,22.63 447.15,23.90 447.14,25.16 446.71,26.35 446.29,27.54 445.51,28.53 444.73,29.52 443.68,30.22 442.62,30.91 441.40,31.23 440.18,31.55 438.92,31.46 437.66,31.37 436.49,30.88 435.33,30.40 434.38,29.57 433.43,28.73 432.79,27.64 432.16,26.55 431.91,25.31 431.66,24.08 431.81,22.82 431.97,21.57 432.52,20.43 433.06,19.30 433.95,18.39 434.83,17.49 435.95,16.92 437.08,16.34 438.33,16.16 439.58,15.97 440.82,16.20 442.06,16.42 443.17,17.03 444.27,17.64 445.13,18.57 445.98,19.50 446.49,20.65 447.01,21.81 447.12,23.06 447.24,24.32 446.95,25.55 446.66,26.78 445.99,27.85 445.32,28.92 444.35,29.72 443.37,30.53 443.37,30.52 443.37,30.52 439.48,32.08 435.59,33.63 430.51,35.74 425.43,37.86 417.93,40.94 410.43,44.02 398.75,48.51 387.07,53.01 375.58,56.45 364.09,59.89 348.84,63.71 333.59,67.52 320.26,70.08 306.93,72.64 291.06,75.06 275.20,77.48 261.92,78.37 248.64,79.27 232.19,79.38 215.75,79.49 197.79,78.24 179.84,76.99 172.31,73.81 164.79,70.62 159.02,63.80 153.26,56.98 151.81,48.73 150.37,40.48 150.48,32.97 150.58,25.45 152.43,16.70 154.27,7.96 157.66,-1.15 161.04,-10.28 167.47,-23.74 173.90,-37.21 179.51,-45.52 185.12,-53.82 193.40,-64.16 201.68,-74.49 210.43,-83.46 219.17,-92.42 227.55,-100.15 235.93,-107.88 241.54,-111.90 247.15,-115.93 253.91,-121.27 260.67,-126.61 270.46,-133.48 280.25,-140.35 288.98,-145.32 297.71,-150.29 303.47,-151.94 309.22,-153.58 310.23,-153.65 311.25,-153.72 312.25,-153.54 313.26,-153.36 314.19,-152.95 315.12,-152.53 315.93,-151.91 316.73,-151.28 317.37,-150.49 318.00,-149.69 318.42,-148.76 318.84,-147.83 319.03,-146.83 319.22,-145.83 319.17,-144.81 319.11,-143.79 318.81,-142.82 318.51,-141.85 317.99,-140.97 317.47,-140.10 316.75,-139.37 316.04,-138.65 315.17,-138.11 314.30,-137.58 313.33,-137.27 312.35,-136.97 311.38,-136.90 310.40,-136.84 304.34,-136.50 298.29,-136.16 292.86,-135.57 287.43,-134.98 280.30,-133.57 273.18,-132.17 262.44,-129.77 251.69,-127.37 240.92,-125.23 230.14,-123.09 217.73,-121.59 205.32,-120.09 190.97,-119.30 176.62,-118.50 157.61,-118.56 138.59,-118.62 119.48,-120.10 100.37,-121.58 93.38,-123.84 86.40,-126.09 74.07,-130.92 61.74,-135.75 55.49,-144.74 49.25,-153.73 47.79,-159.60 46.33,-165.47 46.66,-172.27 46.98,-179.07 49.38,-188.30 51.78,-197.52 56.64,-204.19 61.50,-210.86 69.27,-219.14 77.04,-227.43 85.91,-234.56 94.77,-241.69 101.95,-246.08 109.12,-250.47 116.55,-254.52 123.97,-258.57 131.17,-261.30 138.37,-264.03 144.66,-265.41 150.95,-266.79 157.61,-266.71 164.26,-266.63 170.05,-265.38 175.84,-264.13 179.48,-260.20 183.12,-256.28 184.88,-250.96 186.64,-245.63 187.11,-238.49 187.58,-231.35 187.17,-226.53 186.77,-221.71 185.86,-214.98 184.96,-208.25 183.58,-197.21 182.19,-186.16 180.14,-179.53 178.08,-172.90 175.42,-165.15 172.77,-157.40 169.34,-149.22 165.92,-141.04 161.06,-130.65 156.20,-120.26 150.89,-110.76 145.58,-101.25 138.23,-90.02 130.87,-78.79 123.33,-68.40 115.78,-58.02 108.54,-48.59 101.29,-39.17 91.78,-27.17 82.26,-15.17 70.39,-1.15 58.52,12.86 51.22,21.51 43.92,30.16 38.74,36.16 33.56,42.15 27.79,49.16 22.02,56.17 17.21,60.76 12.40,65.34 8.32,68.17 4.24,71.00 3.55,71.44 2.86,71.87 2.09,72.12 1.32,72.38 0.51,72.44 -0.29,72.50 -1.09,72.37 -1.89,72.24 -2.64,71.91 -3.38,71.59 -4.03,71.10 -4.68,70.61 -5.19,69.98 -5.70,69.35 -6.04,68.62 -6.39,67.89 -6.55,67.09 -6.71,66.29 -6.67,65.48 -6.64,64.67 -6.41,63.89 -6.18,63.11 -5.77,62.41 -5.36,61.71 -4.80,61.13 -4.24,60.54 -4.24,60.54 L -4.24,60.54 Z"></path></g><g stroke-linecap="round" transform="translate(10 10) rotate(0 245.91664232561993 245.91664232561993)"><path d="M32 0 C132.32 -1.15, 232.82 -0.71, 459.83 0 M32 0 C180.35 1.86, 329.97 1.25, 459.83 0 M459.83 0 C481.74 0.59, 490.09 10.53, 491.83 32 M459.83 0 C479.17 -0.53, 493.92 9.84, 491.83 32 M491.83 32 C492.19 186.31, 490.27 340.52, 491.83 459.83 M491.83 32 C491.94 131.4, 491.61 231.88, 491.83 459.83 M491.83 459.83 C492.62 481.15, 482.71 491.44, 459.83 491.83 M491.83 459.83 C490.08 480.19, 479.23 492.64, 459.83 491.83 M459.83 491.83 C373.84 489.92, 287.03 489.81, 32 491.83 M459.83 491.83 C342.15 489.9, 224.43 489.64, 32 491.83 M32 491.83 C10.49 491.37, -0.36 482.39, 0 459.83 M32 491.83 C8.54 490.68, -2.29 482.28, 0 459.83 M0 459.83 C-2.47 348.91, -2.94 237.27, 0 32 M0 459.83 C-0.9 315.05, -0.71 169.07, 0 32 M0 32 C-1.42 9.99, 10.17 -0.82, 32 0 M0 32 C0.51 10.43, 8.75 -1.21, 32 0" stroke="#1e1e1e" stroke-width="4" fill="none"></path></g></svg>