<?xml version="1.0" standalone="no"?>
<!DOCTYPE svg PUBLIC "-//W3C//DTD SVG 1.1//EN" "http://www.w3.org/Graphics/SVG/1.1/DTD/svg11.dtd">
<svg version="1.1" xmlns="http://www.w3.org/2000/svg" viewBox="0 0 511.83328465123986 511.83328465123986" width="511.83328465123986" height="511.83328465123986"><!-- svg-source:excalidraw --><metadata></metadata><defs><style class="style-fonts">
      </style></defs><rect x="0" y="0" width="511.83328465123986" height="511.83328465123986" fill="#121212"></rect><g transform="translate(35.718909244715405 346.6127076144485) rotate(0 219.7297188465442 -91.64691419507653)" stroke="none"><path fill="#d3d3d3" d="M -0.88,64.49 Q -0.88,64.49 1.48,62.90 3.84,61.30 6.29,59.19 8.73,57.07 12.52,53.10 16.30,49.12 21.93,42.69 27.55,36.26 32.72,30.42 37.88,24.57 45.30,16.11 52.72,7.66 64.68,-6.20 76.63,-20.07 86.16,-31.89 95.68,-43.71 102.95,-53.03 110.23,-62.35 117.76,-72.62 125.30,-82.88 132.60,-93.94 139.89,-105.00 145.10,-114.28 150.31,-123.57 155.09,-133.73 159.86,-143.89 163.24,-151.93 166.62,-159.98 169.08,-167.51 171.54,-175.03 173.25,-181.54 174.95,-188.05 176.37,-198.63 177.79,-209.22 178.40,-215.82 179.01,-222.42 178.99,-226.86 178.96,-231.29 178.40,-234.79 177.83,-238.29 177.34,-241.08 176.84,-243.88 176.21,-245.86 175.58,-247.85 174.65,-249.21 173.72,-250.57 172.59,-251.76 171.45,-252.95 167.04,-253.68 162.64,-254.40 160.13,-254.48 157.62,-254.56 154.91,-254.35 152.19,-254.13 146.52,-253.02 140.85,-251.90 134.28,-249.71 127.72,-247.51 120.76,-244.16 113.81,-240.80 106.64,-236.93 99.47,-233.06 90.95,-226.67 82.43,-220.27 74.93,-212.65 67.43,-205.03 62.99,-198.95 58.54,-192.86 56.59,-185.03 54.64,-177.19 54.72,-171.44 54.80,-165.69 56.36,-161.18 57.92,-156.67 59.32,-153.73 60.73,-150.79 64.65,-146.92 68.58,-143.06 79.20,-138.82 89.83,-134.57 96.47,-132.43 103.12,-130.29 121.24,-128.66 139.36,-127.03 158.05,-126.74 176.75,-126.44 190.87,-127.04 205.00,-127.65 217.17,-129.00 229.34,-130.34 239.85,-132.34 250.37,-134.34 261.04,-136.65 271.71,-138.96 278.74,-140.57 285.78,-142.18 291.31,-143.18 296.83,-144.19 300.98,-144.90 305.13,-145.60 307.01,-145.95 308.89,-146.30 309.68,-146.62 310.47,-146.94 310.68,-146.95 310.88,-146.97 311.08,-146.93 311.28,-146.90 311.47,-146.81 311.66,-146.73 311.82,-146.60 311.98,-146.48 312.11,-146.32 312.23,-146.16 312.32,-145.97 312.40,-145.79 312.44,-145.59 312.48,-145.39 312.47,-145.18 312.46,-144.98 312.40,-144.78 312.34,-144.59 312.23,-144.41 312.13,-144.24 311.98,-144.09 311.84,-143.94 311.66,-143.84 311.49,-143.73 311.30,-143.67 311.10,-143.61 310.07,-143.13 309.04,-142.66 305.45,-141.32 301.87,-139.97 293.29,-135.73 284.71,-131.48 275.17,-125.27 265.62,-119.06 258.89,-114.11 252.17,-109.16 246.63,-105.07 241.09,-100.97 232.80,-93.67 224.52,-86.37 215.80,-77.72 207.08,-69.06 198.95,-59.12 190.82,-49.17 185.30,-41.17 179.78,-33.17 173.56,-20.21 167.33,-7.25 164.02,1.55 160.71,10.36 158.97,18.59 157.23,26.81 157.49,33.51 157.74,40.22 158.00,43.56 158.25,46.90 159.79,49.90 161.33,52.90 163.33,55.27 165.33,57.64 168.32,60.18 171.31,62.72 177.40,65.15 183.49,67.58 200.01,68.96 216.53,70.34 232.64,70.57 248.76,70.79 261.78,70.16 274.81,69.52 290.34,67.33 305.87,65.13 319.08,62.73 332.28,60.33 347.34,56.66 362.41,52.99 373.76,49.66 385.12,46.33 396.55,41.98 407.99,37.62 415.35,34.51 422.71,31.41 427.33,29.01 431.95,26.62 433.91,25.48 435.86,24.34 437.29,23.42 438.71,22.49 438.93,22.41 439.16,22.32 439.40,22.32 439.64,22.31 439.87,22.37 440.10,22.44 440.29,22.58 440.49,22.72 440.63,22.91 440.77,23.10 440.85,23.33 440.92,23.56 440.92,23.80 440.91,24.04 440.83,24.26 440.75,24.49 440.60,24.68 440.46,24.87 440.26,25.00 440.06,25.13 439.82,25.19 439.59,25.25 439.35,25.23 439.11,25.22 438.89,25.13 438.67,25.03 438.49,24.87 438.31,24.72 438.19,24.51 438.07,24.30 438.02,24.07 437.97,23.83 438.00,23.60 438.03,23.36 438.14,23.14 438.24,22.93 438.41,22.75 438.58,22.58 438.79,22.47 439.00,22.36 439.24,22.33 439.48,22.29 439.71,22.34 439.95,22.38 440.16,22.50 440.37,22.61 440.53,22.79 440.69,22.96 440.79,23.18 440.89,23.40 440.91,23.64 440.93,23.88 440.88,24.11 440.82,24.35 440.69,24.55 440.57,24.75 440.38,24.90 440.20,25.06 440.20,25.06 440.20,25.06 438.69,25.84 437.18,26.61 435.17,27.78 433.16,28.95 428.45,31.39 423.73,33.83 416.33,36.95 408.92,40.07 397.39,44.46 385.85,48.85 374.44,52.20 363.03,55.55 347.89,59.23 332.75,62.92 319.50,65.33 306.24,67.74 290.59,69.94 274.94,72.15 261.83,72.78 248.72,73.42 232.51,73.19 216.30,72.96 199.42,71.49 182.54,70.02 176.09,67.39 169.64,64.75 166.48,62.04 163.31,59.33 161.14,56.71 158.98,54.09 157.31,50.63 155.63,47.17 155.37,43.74 155.10,40.31 154.86,33.30 154.63,26.28 156.42,17.85 158.21,9.43 161.56,0.50 164.92,-8.41 171.24,-21.56 177.56,-34.70 183.13,-42.80 188.71,-50.90 196.92,-60.96 205.13,-71.03 213.89,-79.76 222.64,-88.49 231.00,-95.89 239.36,-103.29 244.87,-107.43 250.38,-111.58 257.14,-116.63 263.89,-121.69 273.55,-128.08 283.21,-134.46 291.87,-138.89 300.52,-143.31 303.98,-144.80 307.45,-146.29 308.96,-146.61 310.47,-146.94 310.68,-146.95 310.88,-146.97 311.08,-146.93 311.28,-146.90 311.47,-146.81 311.66,-146.73 311.82,-146.60 311.98,-146.48 312.11,-146.32 312.23,-146.16 312.32,-145.97 312.40,-145.79 312.44,-145.59 312.48,-145.39 312.47,-145.18 312.46,-144.98 312.40,-144.78 312.34,-144.59 312.23,-144.41 312.13,-144.24 311.98,-144.09 311.84,-143.94 311.66,-143.84 311.49,-143.73 311.30,-143.67 311.10,-143.61 310.22,-143.56 309.33,-143.52 307.45,-143.27 305.57,-143.02 301.43,-142.31 297.30,-141.61 291.83,-140.61 286.37,-139.62 279.32,-138.01 272.26,-136.39 261.56,-134.08 250.86,-131.76 240.24,-129.75 229.63,-127.73 217.37,-126.38 205.11,-125.02 190.91,-124.42 176.71,-123.81 157.91,-124.11 139.12,-124.41 120.72,-126.10 102.33,-127.78 95.58,-129.96 88.84,-132.13 77.81,-136.64 66.79,-141.14 62.58,-145.37 58.37,-149.61 56.89,-152.71 55.41,-155.82 53.78,-160.72 52.15,-165.62 52.10,-171.73 52.05,-177.83 54.19,-186.10 56.34,-194.38 60.92,-200.66 65.50,-206.93 73.14,-214.70 80.78,-222.46 89.46,-228.99 98.14,-235.51 105.35,-239.44 112.57,-243.36 119.67,-246.82 126.78,-250.28 133.51,-252.58 140.24,-254.88 146.06,-256.10 151.88,-257.31 154.76,-257.64 157.64,-257.97 160.38,-258.02 163.12,-258.07 167.59,-257.50 172.05,-256.93 173.55,-255.52 175.04,-254.11 175.62,-253.09 176.20,-252.08 177.14,-250.37 178.08,-248.65 178.75,-246.50 179.43,-244.34 179.93,-241.52 180.43,-238.70 181.01,-235.00 181.59,-231.31 181.61,-226.74 181.63,-222.18 181.01,-215.52 180.40,-208.87 178.95,-198.13 177.49,-187.38 175.77,-180.80 174.04,-174.22 171.54,-166.59 169.05,-158.96 165.65,-150.87 162.24,-142.77 157.43,-132.52 152.61,-122.28 147.36,-112.91 142.10,-103.55 134.77,-92.43 127.44,-81.31 119.88,-71.02 112.32,-60.72 105.04,-51.38 97.76,-42.03 88.21,-30.18 78.66,-18.32 66.71,-4.44 54.75,9.44 47.34,17.90 39.93,26.37 34.78,32.23 29.63,38.08 23.99,44.57 18.35,51.05 14.49,55.15 10.63,59.25 8.09,61.50 5.54,63.76 3.21,65.41 0.88,67.06 0.72,67.15 0.55,67.23 0.37,67.28 0.18,67.32 -0.00,67.32 -0.18,67.32 -0.37,67.28 -0.55,67.23 -0.72,67.15 -0.88,67.06 -1.02,66.93 -1.16,66.81 -1.27,66.65 -1.38,66.50 -1.45,66.32 -1.51,66.15 -1.53,65.96 -1.56,65.77 -1.53,65.59 -1.51,65.40 -1.44,65.22 -1.38,65.05 -1.27,64.89 -1.16,64.74 -1.02,64.61 -0.88,64.49 -0.88,64.49 L -0.88,64.49 Z"></path></g><g stroke-linecap="round" transform="translate(10 10) rotate(0 245.91664232561993 245.91664232561993)"><path d="M32 0 C179.47 1.59, 326.01 1.22, 459.83 0 M32 0 C125.51 -0.07, 220.51 0.14, 459.83 0 M459.83 0 C482.95 -0.32, 489.98 10.22, 491.83 32 M459.83 0 C480.72 0.91, 493.56 11.95, 491.83 32 M491.83 32 C491.53 200.52, 491.94 366.88, 491.83 459.83 M491.83 32 C493.23 119.86, 493.15 206.98, 491.83 459.83 M491.83 459.83 C491.04 480.28, 479.88 492.55, 459.83 491.83 M491.83 459.83 C491.85 479.99, 480.49 493.57, 459.83 491.83 M459.83 491.83 C319.24 489.46, 177.97 491.18, 32 491.83 M459.83 491.83 C311.27 489.87, 163.7 490.24, 32 491.83 M32 491.83 C12.27 491, -0.88 479.34, 0 459.83 M32 491.83 C12.62 491.25, 0.21 481.31, 0 459.83 M0 459.83 C-1.11 342.82, -1.19 224.72, 0 32 M0 459.83 C1.41 361.64, 1.07 264.12, 0 32 M0 32 C0.02 9.59, 9.37 0.36, 32 0 M0 32 C-0.61 10.66, 9.83 1.87, 32 0" stroke="#d3d3d3" stroke-width="1" fill="none"></path></g></svg>